<?xml version="1.0" encoding="UTF-8"?>
<svg xmlns="http://www.w3.org/2000/svg" viewBox="0 0 360 520" role="img" aria-label="Full architecture">
  <rect width="360" height="520" fill="#FFF8EC"/>

  <rect x="24" y="24" width="312" height="64" rx="16" fill="#FEF3C7" stroke="#D97706" stroke-width="2"/>
  <text x="180" y="52" text-anchor="middle" fill="#92400E" font-family="system-ui,sans-serif" font-size="15" font-weight="700">Voice PE / ATOM Echo</text>
  <text x="180" y="72" text-anchor="middle" fill="#B45309" font-family="system-ui,sans-serif" font-size="12">room mic · 2.4 GHz Wi-Fi</text>

  <rect x="178" y="88" width="4" height="20" fill="#0D9488"/>
  <text x="210" y="102" text-anchor="start" fill="#57534E" font-family="system-ui,sans-serif" font-size="12">Wi-Fi</text>

  <rect x="124" y="108" width="112" height="36" rx="10" fill="#ECFDF5" stroke="#0D9488" stroke-width="2"/>
  <text x="180" y="131" text-anchor="middle" fill="#0F766E" font-family="system-ui,sans-serif" font-size="13" font-weight="700">local LAN</text>

  <rect x="178" y="144" width="4" height="20" fill="#0D9488"/>

  <rect x="24" y="164" width="312" height="64" rx="16" fill="#1C1917"/>
  <text x="180" y="192" text-anchor="middle" fill="#FFF8EC" font-family="system-ui,sans-serif" font-size="15" font-weight="700">Mini PC</text>
  <text x="180" y="212" text-anchor="middle" fill="#D6D3D1" font-family="system-ui,sans-serif" font-size="12">Home Assistant OS</text>

  <rect x="178" y="228" width="4" height="20" fill="#0D9488"/>

  <rect x="24" y="248" width="312" height="52" rx="14" fill="#0F766E"/>
  <text x="180" y="272" text-anchor="middle" fill="#ECFDF5" font-family="system-ui,sans-serif" font-size="15" font-weight="700">Whisper</text>
  <text x="180" y="290" text-anchor="middle" fill="#CCFBF1" font-family="system-ui,sans-serif" font-size="12">local STT</text>

  <rect x="178" y="300" width="4" height="20" fill="#0D9488"/>

  <rect x="24" y="320" width="312" height="52" rx="14" fill="#115E59"/>
  <text x="180" y="344" text-anchor="middle" fill="#ECFDF5" font-family="system-ui,sans-serif" font-size="15" font-weight="700">Assist</text>
  <text x="180" y="362" text-anchor="middle" fill="#CCFBF1" font-family="system-ui,sans-serif" font-size="12">commands</text>

  <rect x="178" y="372" width="4" height="20" fill="#0D9488"/>

  <rect x="24" y="392" width="312" height="52" rx="14" fill="#44403C"/>
  <text x="180" y="416" text-anchor="middle" fill="#FFF8EC" font-family="system-ui,sans-serif" font-size="15" font-weight="700">Shelly</text>
  <text x="180" y="434" text-anchor="middle" fill="#D6D3D1" font-family="system-ui,sans-serif" font-size="12">lamp</text>

  <text x="180" y="480" text-anchor="middle" fill="#57534E" font-family="system-ui,sans-serif" font-size="12">voice in · command out · all on LAN</text>
</svg>
